<?xml version="1.0" standalone="no"?>
<!DOCTYPE svg PUBLIC "-//W3C//DTD SVG 20010904//EN"
 "http://www.w3.org/TR/2001/REC-SVG-20010904/DTD/svg10.dtd">
<svg version="1.0" xmlns="http://www.w3.org/2000/svg"
 width="382.000000pt" height="418.000000pt" viewBox="0 0 382.000000 418.000000"
 preserveAspectRatio="xMidYMid meet">

<g transform="translate(0.000000,418.000000) scale(0.100000,-0.100000)"
fill="#000000" stroke="none">
<path d="M1055 4025 c-38 -13 -106 -34 -150 -46 -135 -38 -251 -115 -402 -268
-204 -205 -263 -336 -261 -575 1 -106 1 -107 30 -127 15 -11 26 -24 23 -29 -8
-12 13 -183 31 -255 30 -120 34 -131 52 -150 10 -11 37 -47 60 -80 59 -84 289
-312 400 -398 51 -40 130 -97 176 -127 46 -30 126 -85 177 -121 117 -82 126
-85 149 -57 17 21 21 22 52 9 18 -7 60 -17 92 -22 55 -9 61 -8 94 18 48 37 91
80 131 133 62 82 69 85 210 83 68 -1 145 -7 170 -13 25 -6 89 -14 141 -19 105
-9 129 -18 192 -76 52 -48 182 -143 212 -155 11 -4 50 -24 84 -44 67 -38 259
-118 374 -155 76 -25 112 -50 133 -91 19 -37 19 -40 -5 -40 -11 0 -32 13 -46
30 -27 30 -92 67 -135 76 -23 4 -65 14 -154 34 -22 5 -55 9 -73 10 -18 0 -62
14 -99 31 -36 17 -93 36 -127 43 -65 14 -203 61 -221 76 -6 5 -46 20 -89 34
-89 28 -111 24 -142 -27 -27 -45 -27 -229 0 -342 43 -185 98 -308 183 -414 24
-31 66 -90 93 -131 106 -162 138 -202 199 -252 72 -58 191 -180 205 -209 10
-20 -16 -59 -38 -59 -20 0 -130 78 -172 122 -23 24 -68 70 -101 104 -32 34
-85 92 -118 130 -33 38 -86 97 -117 132 -32 34 -58 69 -58 76 0 8 -20 30 -44
50 -27 22 -47 48 -51 66 -3 16 -21 42 -39 58 -30 26 -37 28 -84 22 -29 -3 -61
-15 -73 -26 -18 -16 -21 -27 -16 -74 3 -30 12 -75 20 -100 8 -25 27 -87 41
-139 25 -87 66 -200 101 -276 20 -43 62 -165 69 -200 3 -16 2 -37 -3 -45 -8
-11 -16 -7 -44 22 -19 21 -44 56 -55 80 -69 148 -143 323 -153 364 -7 27 -37
101 -67 164 -30 63 -73 170 -97 237 -24 67 -52 135 -64 151 -12 17 -21 33 -21
37 0 3 -20 35 -45 69 -25 35 -45 67 -45 70 0 11 -43 66 -52 66 -4 0 -8 -6 -8
-14 0 -8 -6 -21 -12 -28 -7 -7 -28 -60 -47 -118 -18 -58 -46 -134 -62 -170
-15 -36 -35 -85 -44 -109 -8 -24 -20 -50 -25 -56 -6 -7 -17 -35 -24 -61 -14
-49 -125 -345 -132 -353 -3 -3 -9 0 -14 5 -6 6 -1 27 14 57 32 63 86 225 86
258 0 15 -8 37 -18 49 -30 37 -62 21 -117 -60 -44 -64 -75 -88 -75 -57 0 24
40 121 65 157 14 20 25 44 25 54 0 10 20 55 44 99 24 45 58 125 77 177 18 52
36 100 40 105 15 20 43 185 34 194 -6 6 -29 13 -52 17 -39 6 -42 4 -47 -17 -3
-13 -12 -58 -21 -99 -26 -119 -107 -329 -149 -385 -13 -16 -26 -43 -30 -58 -3
-15 -22 -60 -40 -100 -18 -40 -54 -128 -80 -197 -26 -69 -52 -133 -57 -142
-13 -26 -11 -56 7 -83 9 -13 13 -28 10 -34 -7 -11 59 -71 78 -71 13 0 38 22
60 54 17 25 54 13 62 -20 8 -32 72 -53 109 -36 28 13 76 107 139 267 19 50 60
148 90 219 31 71 56 138 56 148 0 11 4 16 10 13 5 -3 12 7 16 22 4 15 14 37
24 48 9 11 17 33 18 48 2 33 9 47 23 47 13 0 71 -124 100 -215 12 -38 44 -113
71 -166 26 -53 48 -105 48 -117 0 -12 13 -47 29 -79 16 -32 39 -89 52 -128 12
-38 35 -96 50 -127 16 -32 29 -62 29 -68 0 -6 23 -46 50 -88 51 -78 93 -117
163 -153 l38 -20 29 31 c39 42 64 119 55 172 -9 54 -43 150 -93 268 -22 52
-52 144 -67 204 -14 61 -33 123 -42 139 -23 46 -7 43 26 -5 95 -135 526 -598
557 -598 8 0 31 -15 51 -34 54 -47 75 -56 119 -49 41 7 120 64 129 94 19 60
15 89 -18 127 -18 20 -42 49 -53 63 -10 15 -58 61 -106 104 -93 81 -222 241
-234 289 -4 16 -29 53 -56 83 -90 99 -157 221 -191 343 -42 154 -56 340 -25
340 6 0 51 -18 102 -41 50 -23 124 -50 165 -60 40 -11 88 -28 105 -38 17 -11
58 -25 90 -33 54 -12 62 -17 85 -57 59 -102 151 -174 207 -163 28 5 44 35 44
82 0 26 22 46 38 36 4 -2 22 -33 40 -69 19 -36 44 -75 57 -87 32 -30 92 -36
130 -12 28 17 30 23 33 93 9 178 10 173 -25 213 -18 20 -36 48 -39 61 -5 22
-12 25 -48 25 -42 0 -158 41 -288 103 -40 19 -103 48 -140 66 -36 17 -86 45
-110 64 -23 18 -64 45 -89 60 -26 14 -66 45 -90 67 -63 57 -135 90 -221 100
-187 22 -319 34 -383 34 l-70 1 1 30 c1 17 17 57 36 91 33 57 85 212 123 364
9 36 28 97 41 135 45 124 36 369 -22 595 -7 30 -18 107 -22 170 -8 102 -12
121 -40 171 -74 130 -190 223 -310 248 -29 6 -87 27 -129 46 -203 96 -319 114
-448 70z m291 -104 c32 -16 115 -50 184 -76 235 -90 240 -93 308 -212 45 -80
44 -84 -26 -102 -47 -13 -124 -85 -243 -227 -127 -152 -164 -228 -192 -392
-28 -161 26 -332 105 -332 111 0 244 115 323 279 26 53 66 137 90 186 l43 90
7 -38 c14 -71 -1 -306 -24 -397 -13 -46 -27 -92 -32 -102 -9 -17 -49 -149 -63
-211 -13 -53 -99 -232 -154 -317 -30 -47 -78 -108 -107 -135 l-53 -50 -88 1
c-94 2 -154 23 -221 77 -15 13 -39 30 -53 40 -14 9 -43 29 -65 44 -23 15 -56
36 -75 46 -19 10 -57 38 -85 63 -27 25 -66 58 -85 72 -43 34 -156 139 -184
171 -12 14 -30 34 -41 45 -45 47 -185 226 -185 237 0 4 -3 15 -6 23 -5 12 -2
15 10 10 9 -3 16 -12 16 -18 0 -35 69 -98 203 -185 40 -26 169 -49 337 -60
189 -13 206 -5 209 97 2 57 -80 208 -159 295 -76 82 -193 167 -235 170 -14 1
-29 7 -33 14 -4 6 -27 16 -52 23 -25 6 -72 24 -105 39 -33 16 -104 50 -158 75
l-99 47 7 87 c5 65 14 99 34 137 33 62 272 309 360 373 62 44 173 91 216 92
11 1 52 12 90 25 105 35 205 34 281 -4z m-941 -761 c3 -5 2 -10 -4 -10 -5 0
-13 5 -16 10 -3 6 -2 10 4 10 5 0 13 -4 16 -10z m19 -331 l-8 -104 -13 55 c-7
30 -16 89 -19 130 l-6 75 27 -26 27 -27 -8 -103z m2501 -1391 c21 -9 35 -28
21 -28 -16 0 -56 21 -56 30 0 13 3 13 35 -2z m-1925 -892 c0 -16 -18 -31 -27
-22 -8 8 5 36 17 36 5 0 10 -6 10 -14z"/>
<path d="M1417 2283 c4 -11 0 -14 -13 -11 -10 2 -23 -2 -29 -9 -5 -7 -32 -16
-60 -19 -27 -3 -76 -15 -107 -26 -48 -17 -58 -25 -58 -44 0 -12 7 -30 16 -38
32 -32 282 6 330 51 16 15 24 33 24 57 0 41 -11 50 -67 52 -33 1 -40 -2 -36
-13z"/>
</g>
</svg>
